<?xml version="1.0" encoding="utf-8"?>
<!-- Generator: Adobe Illustrator 25.2.0, SVG Export Plug-In . SVG Version: 6.00 Build 0)  -->
<svg version="1.1" id="Layer_1" xmlns="http://www.w3.org/2000/svg" xmlns:xlink="http://www.w3.org/1999/xlink" x="0px" y="0px"
	 viewBox="0 0 4 16" style="enable-background:new 0 0 4 16;" xml:space="preserve">
<style type="text/css">
	.st0{fill-rule:evenodd;clip-rule:evenodd;}
</style>
<path id="menu_3" class="st0" d="M2,4C0.9,4,0,3.1,0,2s0.9-2,2-2s2,0.9,2,2S3.1,4,2,4z M2,16c-1.1,0-2-0.9-2-2s0.9-2,2-2s2,0.9,2,2
	S3.1,16,2,16z M2,10c-1.1,0-2-0.9-2-2s0.9-2,2-2s2,0.9,2,2S3.1,10,2,10z"/>
</svg>
